<?xml version="1.0" encoding="utf-8"?>
<!-- Generator: Adobe Illustrator 19.0.0, SVG Export Plug-In . SVG Version: 6.00 Build 0)  -->
<svg version="1.1" xmlns="http://www.w3.org/2000/svg" xmlns:xlink="http://www.w3.org/1999/xlink" x="0px" y="0px"
	 viewBox="0 0 392 65" style="enable-background:new 0 0 392 65;" xml:space="preserve">
<style type="text/css">
	.st0{fill:#FFFFFF;}
</style>
<g id="logo_basis">
	<rect width="392" height="65"/>
</g>
<g id="Typography">
	<g>
		<path class="st0" d="M17.3,30.1C17.3,19,21.9,12,32.6,12c10.5,0,15.1,6.8,15.1,17.8c0,10.9-4.6,18.2-15.4,18.2
			C22,48,17.3,41.3,17.3,30.1z M39.2,30c0-6.3-1-10.9-6.7-10.9c-5.7,0-6.7,4.6-6.7,10.9c0,6.2,1,10.9,6.7,10.9
			C38.2,40.8,39.2,36.2,39.2,30z"/>
		<path class="st0" d="M55.2,41.3h8.6V27.4h-8.6v-6.1h8.6v-0.1c0-10.4,9-13.6,18.1-13.6v6.1c-4.6,0-10,1.3-10,7.5v0.1h10v6.1h-10
			v13.9h10v6.1H55.2V41.3z"/>
		<path class="st0" d="M91.2,41.3h8.6V27.4h-8.6v-6.1h8.6v-0.1c0-10.4,9-13.6,18.1-13.6v6.1c-4.6,0-10,1.3-10,7.5v0.1h10v6.1h-10
			v13.9h10v6.1H91.2V41.3z"/>
		<path class="st0" d="M125.9,33.9c0-10.9,7.5-14,14.8-14c6.8,0,13.7,2.7,14.2,11.6h-8.2c-0.3-3.8-2.6-5.1-6-5.1
			c-4.1,0-6.5,2.1-6.5,7.4s2.3,7.4,6.5,7.4c3.3,0,5.6-1.3,5.9-5h8.2c-0.5,8.8-7.6,11.6-14.3,11.6C133.4,48,125.9,44.8,125.9,33.9z"
			/>
		<path class="st0" d="M161.9,34c0-11,7.8-14.1,14.8-14.1c7.1,0,14.5,3.2,14.5,13.9c0,11-7.8,14.2-14.8,14.2S161.9,44.8,161.9,34z
			 M182.8,33.9c0-5.3-2.3-7.4-6.3-7.4c-4,0-6.3,2.1-6.3,7.4s2.3,7.4,6.3,7.4C180.5,41.4,182.8,39.3,182.8,33.9z"/>
		<path class="st0" d="M199.9,37.2V20.5h8v15.2c0,3.8,1,5.5,4.2,5.5c2.2,0,3.7-0.7,4.9-1.9V20.5h8v26.8H218v-3.6
			c-1.3,2-4.1,4.2-8.6,4.2C204.5,48,199.9,45.5,199.9,37.2z"/>
		<path class="st0" d="M235.8,41.3h6.3V26.6h-6.3v-6.1h13.4v5.8c1.3-3,3.7-6.4,8.9-6.4c2.6,0,4.4,0.8,5.3,1.5v7.9
			c-1.4-0.9-3.2-1.7-5.7-1.7c-1.9,0-4.7,0.5-7.6,3.4v10.3h11v6.1h-25.3V41.3z"/>
		<path class="st0" d="M270,39h8.2c0.2,2.6,2.9,3.3,6.5,3.3c3.1,0,5.9-0.5,5.9-2.5c0-2.2-3.9-2.4-9.2-3.2
			c-5.2-0.8-10.9-2.2-10.9-8.2c0-5.9,5.6-8.5,13.7-8.5c7,0,12.7,1.9,13.1,8.5h-8.2c-0.4-2.3-3-2.8-5.6-2.8c-2.8,0-4.7,0.6-4.7,2.2
			c0,1.9,2.9,2.2,9.2,3.1c5.3,0.7,10.9,2.2,10.9,8.3c0,6.7-6.8,8.9-14.8,8.8C276.5,47.9,270.2,45.8,270,39z"/>
		<path class="st0" d="M306,34.1c0-10.8,7.5-14.2,14.7-14.2c7.4,0,14.2,3.5,14.2,14v1.4h-20.8c0,3.8,1.9,6.6,6.8,6.6
			c3,0,5.2-1,5.6-2.9h8.3c-1.4,6.7-7.4,9-13.9,9C312.6,48,306,44.2,306,34.1z M326.7,30.4c-0.8-3.4-3.5-4.4-6.2-4.4
			c-2.7,0-5.3,1-6.2,4.4H326.7z"/>
		<path class="st0" d="M339.8,47.3h33.4v7h-33.4V47.3z"/>
	</g>
</g>
</svg>
