<?xml version="1.0" encoding="utf-8"?>
<!-- Generator: Adobe Illustrator 19.0.0, SVG Export Plug-In . SVG Version: 6.00 Build 0)  -->
<svg version="1.1" xmlns="http://www.w3.org/2000/svg" xmlns:xlink="http://www.w3.org/1999/xlink" x="0px" y="0px"
	 viewBox="0 0 1000 1000" style="enable-background:new 0 0 1000 1000;" xml:space="preserve">
<style type="text/css">
	.st0{display:none;}
	.st1{display:inline;}
	.st2{fill:#FFFFFF;}
	.st3{display:inline;fill:none;stroke:#000000;stroke-width:18;stroke-linecap:square;stroke-miterlimit:10;}
	.st4{fill:none;stroke:#000000;stroke-width:18;stroke-linecap:square;stroke-miterlimit:10;}
	.st5{fill:none;stroke:#000000;stroke-width:12;stroke-miterlimit:10;}
	.st6{fill:none;stroke:#000000;stroke-width:12;stroke-miterlimit:10;stroke-dasharray:29.4919,14.7459;}
	.st7{fill:none;stroke:#000000;stroke-width:12;stroke-miterlimit:10;stroke-dasharray:40.4438,20.2219;}
</style>
<g id="Track" class="st0">
	<g id="XMLID_1_" class="st1">
		<path id="XMLID_7_" d="M111.6,175.5v181.4h777.6V175.5H111.6z M262,325.8H142.7V206.6H262V325.8z"/>
		<path id="XMLID_5_" class="st2" d="M364.7,80.7L202.1,243.4l-96.1-96.1l-34.5,34.5l130.6,130.6l197.1-197.1L364.7,80.7L364.7,80.7
			z"/>
		<polygon id="XMLID_4_" points="202.1,297.6 86.2,181.7 105.9,161.9 202.1,258 364.7,95.4 384.5,115.1 		"/>
	</g>
	<g id="XMLID_2_" class="st1">
		<path id="XMLID_12_" d="M111.6,403v181.4h777.6V403H111.6z M262,553.3H142.7V434.1H262V553.3z"/>
		<path id="XMLID_10_" class="st2" d="M364.7,308.2L202.1,470.9l-96.1-96.1l-34.5,34.5l130.6,130.6l197.1-197.1L364.7,308.2
			L364.7,308.2z"/>
		<polygon id="XMLID_8_" points="202.1,525.1 86.2,409.2 105.9,389.4 202.1,485.5 364.7,322.9 384.5,342.7 		"/>
	</g>
	<g id="XMLID_15_" class="st1">
		<path id="XMLID_19_" d="M111.6,630.5V812h777.6V630.5H111.6z M262,780.9H142.7V661.6H262V780.9z"/>
	</g>
</g>
<g id="Share" class="st0">
	<g id="XMLID_37_" class="st1">
		<rect id="XMLID_38_" x="107" y="246.9" width="258.7" height="60.4"/>
		<rect id="XMLID_39_" x="106.9" y="171.2" width="258.7" height="60.4"/>
		<rect id="XMLID_40_" x="107" y="95.5" width="258.7" height="60.4"/>
	</g>
	<g id="XMLID_17_" class="st1">
		<rect id="XMLID_23_" x="683.3" y="182" width="258.7" height="60.4"/>
		<rect id="XMLID_22_" x="683.2" y="106.3" width="258.7" height="60.4"/>
		<rect id="XMLID_18_" x="683.3" y="30.6" width="258.7" height="60.4"/>
	</g>
	<g id="XMLID_16_" class="st1">
		<rect id="XMLID_26_" x="412.9" y="532.3" width="258.7" height="60.4"/>
		<rect id="XMLID_25_" x="412.7" y="456.6" width="258.7" height="60.4"/>
		<rect id="XMLID_24_" x="412.9" y="380.9" width="258.7" height="60.4"/>
	</g>
	<g id="XMLID_45_" class="st1">
		<rect id="XMLID_48_" x="37.1" y="831" width="258.7" height="60.4"/>
		<rect id="XMLID_47_" x="37" y="755.3" width="258.7" height="60.4"/>
		<rect id="XMLID_46_" x="37.1" y="679.6" width="258.7" height="60.4"/>
	</g>
	<g id="XMLID_41_" class="st1">
		<rect id="XMLID_44_" x="644" y="885.1" width="258.7" height="60.4"/>
		<rect id="XMLID_43_" x="643.9" y="809.3" width="258.7" height="60.4"/>
		<rect id="XMLID_42_" x="644" y="733.6" width="258.7" height="60.4"/>
	</g>
	<polyline id="XMLID_27_" class="st3" points="652.4,137.8 403.8,203.9 528.8,351.8 	"/>
	<polyline id="XMLID_50_" class="st3" points="825,269.7 766.2,705.4 547,619.6 328.3,776 	"/>
	<line id="XMLID_51_" class="st3" x1="229.5" y1="334.3" x2="131.8" y2="649.5"/>
</g>
<g id="Collect">
	<line id="XMLID_60_" class="st4" x1="795" y1="660.4" x2="362.3" y2="859"/>
	<line id="XMLID_70_" class="st4" x1="759.6" y1="327.6" x2="442.4" y2="129.8"/>
	<line id="XMLID_71_" class="st4" x1="548.9" y1="497.2" x2="237.4" y2="373.6"/>
	<g id="XMLID_72_">
		<g id="XMLID_73_">
			<g id="XMLID_91_">
				<g id="XMLID_92_">
					<polyline id="XMLID_100_" class="st5" points="250.3,80.3 230.3,80.3 230.3,100.3 					"/>
					<line id="XMLID_99_" class="st6" x1="230.3" y1="115.1" x2="230.3" y2="152"/>
					<polyline id="XMLID_98_" class="st5" points="230.3,159.3 230.3,179.3 250.3,179.3 					"/>
					<line id="XMLID_97_" class="st7" x1="270.5" y1="179.3" x2="624.4" y2="179.3"/>
					<polyline id="XMLID_96_" class="st5" points="634.5,179.3 654.5,179.3 654.5,159.3 					"/>
					<line id="XMLID_95_" class="st6" x1="654.5" y1="144.6" x2="654.5" y2="107.7"/>
					<polyline id="XMLID_94_" class="st5" points="654.5,100.3 654.5,80.3 634.5,80.3 					"/>
					<line id="XMLID_93_" class="st7" x1="614.3" y1="80.3" x2="260.4" y2="80.3"/>
				</g>
			</g>
		</g>
	</g>
	<g id="XMLID_61_">
		<g id="XMLID_62_">
			<g id="XMLID_102_">
				<g id="XMLID_103_">
					<polyline id="XMLID_111_" class="st5" points="45.2,324.1 25.2,324.1 25.2,344.1 					"/>
					<line id="XMLID_110_" class="st6" x1="25.2" y1="358.9" x2="25.2" y2="395.7"/>
					<polyline id="XMLID_109_" class="st5" points="25.2,403.1 25.2,423.1 45.2,423.1 					"/>
					<line id="XMLID_108_" class="st7" x1="65.5" y1="423.1" x2="419.4" y2="423.1"/>
					<polyline id="XMLID_107_" class="st5" points="429.5,423.1 449.5,423.1 449.5,403.1 					"/>
					<line id="XMLID_106_" class="st6" x1="449.5" y1="388.4" x2="449.5" y2="351.5"/>
					<polyline id="XMLID_105_" class="st5" points="449.5,344.1 449.5,324.1 429.5,324.1 					"/>
					<line id="XMLID_104_" class="st7" x1="409.2" y1="324.1" x2="55.4" y2="324.1"/>
				</g>
			</g>
		</g>
	</g>
	<g id="XMLID_63_">
		<g id="XMLID_64_">
			<g id="XMLID_113_">
				<g id="XMLID_114_">
					<polyline id="XMLID_122_" class="st5" points="170.2,809.6 150.2,809.6 150.2,829.6 					"/>
					<line id="XMLID_121_" class="st6" x1="150.2" y1="844.3" x2="150.2" y2="881.2"/>
					<polyline id="XMLID_120_" class="st5" points="150.2,888.5 150.2,908.5 170.2,908.5 					"/>
					<line id="XMLID_119_" class="st7" x1="190.4" y1="908.5" x2="544.3" y2="908.5"/>
					<polyline id="XMLID_118_" class="st5" points="554.4,908.5 574.4,908.5 574.4,888.5 					"/>
					<line id="XMLID_117_" class="st6" x1="574.4" y1="873.8" x2="574.4" y2="836.9"/>
					<polyline id="XMLID_116_" class="st5" points="574.4,829.6 574.4,809.6 554.4,809.6 					"/>
					<line id="XMLID_115_" class="st7" x1="534.1" y1="809.6" x2="180.3" y2="809.6"/>
				</g>
			</g>
		</g>
	</g>
	<g id="XMLID_49_">
		<rect id="XMLID_54_" x="533.2" y="572.3" width="453.1" height="105.7"/>
		<rect id="XMLID_53_" x="533" y="439.7" width="453.1" height="105.7"/>
		<rect id="XMLID_52_" x="533.2" y="307.1" width="453.1" height="105.7"/>
	</g>
	<circle id="XMLID_55_" cx="229.8" cy="373.6" r="29.6"/>
	<circle id="XMLID_56_" cx="442.1" cy="129.4" r="29.6"/>
	<circle id="XMLID_57_" cx="362.3" cy="859" r="29.6"/>
	<g id="XMLID_58_">
		<g id="XMLID_59_">
			<g id="XMLID_125_">
				<g id="XMLID_126_">
					<polyline id="XMLID_134_" class="st5" points="62.6,585.4 42.6,585.4 42.6,605.4 					"/>
					<line id="XMLID_133_" class="st6" x1="42.6" y1="620.1" x2="42.6" y2="657"/>
					<polyline id="XMLID_132_" class="st5" points="42.6,664.4 42.6,684.4 62.6,684.4 					"/>
					<line id="XMLID_131_" class="st7" x1="82.8" y1="684.4" x2="436.7" y2="684.4"/>
					<polyline id="XMLID_130_" class="st5" points="446.8,684.4 466.8,684.4 466.8,664.4 					"/>
					<line id="XMLID_129_" class="st6" x1="466.8" y1="649.6" x2="466.8" y2="612.7"/>
					<polyline id="XMLID_128_" class="st5" points="466.8,605.4 466.8,585.4 446.8,585.4 					"/>
					<line id="XMLID_127_" class="st7" x1="426.6" y1="585.4" x2="72.7" y2="585.4"/>
				</g>
			</g>
		</g>
	</g>
</g>
<g id="basis" class="st0">
	<g id="XMLID_34_" class="st1">
		<path id="XMLID_35_" d="M111.6,630.5V812h777.6V630.5H111.6z"/>
	</g>
	<g id="XMLID_31_" class="st1">
		<path id="XMLID_32_" d="M111.2,403v181.4h777.6V403H111.2z"/>
	</g>
	<g id="XMLID_28_" class="st1">
		<path id="XMLID_29_" d="M111.6,175.5v181.4h777.6V175.5H111.6z"/>
	</g>
</g>
</svg>
